<svg width="1730" height="544" viewBox="0 0 1730 544" fill="none" xmlns="http://www.w3.org/2000/svg">
<path d="M133.939 180.107C326.031 102.232 536.567 130.602 646.183 172.319C466.206 146.406 301.803 137.021 133.939 180.107Z" fill="#4A4329"/>
<path d="M37.5918 236.275C37.5918 236.275 82.0225 198.278 133.939 180.107M1681.06 248.464C1505.33 371.201 1367.02 419.117 1250.15 423.793M133.939 180.107C326.031 102.232 536.567 130.602 646.183 172.319M133.939 180.107C301.803 137.021 466.206 146.406 646.183 172.319M646.183 172.319C787.301 226.025 902.701 328.812 1040.75 385.045M1040.75 385.045C1104.2 410.89 1172.43 426.901 1250.15 423.793M1040.75 385.045C1040.75 385.045 1104.56 396.853 1145.45 404.419M1250.15 423.793L1420.61 388.976C1420.61 388.976 1302.06 423.793 1145.45 404.419M1250.15 423.793C1250.15 423.793 1186.34 411.985 1145.45 404.419" stroke="#4A4329" stroke-width="17.3056"/>
<g filter="url(#filter0_d_20_127)">
<path fill-rule="evenodd" clip-rule="evenodd" d="M49.7758 299.407C57.3757 307.538 66.6547 313.724 77.6127 317.965C88.5707 322.207 100.943 324.328 114.729 324.328C121.798 324.328 128.426 323.886 134.612 323.003C140.798 322.296 146.366 321.323 151.314 320.086C156.263 318.672 160.505 317.258 164.04 315.844C167.751 314.431 170.668 313.017 172.789 311.603L172.324 310.194C176.599 313.634 181.35 316.489 186.574 318.761C194.705 322.296 203.718 324.063 213.616 324.063C223.514 324.063 232.527 322.296 240.658 318.761C248.965 315.226 256.034 310.277 261.867 303.914C265.3 300.169 268.275 295.963 270.789 291.299V320.351H302.868V208.473C304.989 208.12 308.259 207.678 312.677 207.148C317.096 206.618 321.338 206.353 325.403 206.353C330.882 206.353 335.477 207.148 339.189 208.739C343.077 210.152 346.082 212.539 348.203 215.897C350.5 219.078 352.091 223.32 352.975 228.622C354.035 233.748 354.565 240.022 354.565 247.445V320.351H386.644V294.909C388.515 297.908 390.632 300.733 392.996 303.384C398.829 309.747 406.252 314.784 415.266 318.496C424.28 322.03 434.884 323.798 447.08 323.798C451.852 323.798 456.535 323.533 461.131 323.003C465.726 322.472 469.968 321.765 473.856 320.882C477.921 320.175 481.456 319.379 484.461 318.496C487.642 317.435 490.116 316.463 491.884 315.579L487.642 289.333C483.93 290.924 478.805 292.426 472.265 293.84C465.903 295.254 458.833 295.961 451.056 295.961C437.801 295.961 427.638 292.956 420.568 286.947C413.675 280.761 409.787 272.101 408.903 260.966H485.238C485.854 267.743 487.123 274.195 489.044 280.319C491.872 289.156 496.114 296.845 501.77 303.384C507.602 309.747 514.849 314.784 523.509 318.496C532.346 322.03 542.686 323.798 554.527 323.798C562.127 323.798 569.462 323.091 576.532 321.677C583.778 320.263 589.169 318.672 592.704 316.905L588.197 290.394C584.308 291.984 579.713 293.31 574.411 294.37C569.109 295.431 563.718 295.961 558.239 295.961C543.569 295.961 533.141 291.984 526.956 284.031C520.77 275.901 517.677 264.943 517.677 251.157C517.677 236.841 520.946 225.794 527.486 218.018C534.025 210.064 543.569 206.087 556.118 206.087C561.42 206.087 566.369 206.618 570.964 207.678C575.736 208.739 579.978 210.064 583.69 211.655L589.437 189.77V265.208C589.437 274.398 590.233 282.617 591.823 289.863C593.414 296.933 596.154 303.031 600.042 308.156C603.93 313.105 609.144 316.905 615.684 319.556C620.784 321.569 626.801 322.818 633.736 323.303C627.382 340.561 620.734 359.07 613.792 378.829H656.119L665.166 352.98C668.397 344.149 671.52 335.209 674.536 326.162H768.883C771.899 335.209 775.022 344.041 778.253 352.657C781.484 361.273 784.608 369.997 787.623 378.829H821.153H831.566H853.232V266.951C855.353 266.597 858.534 266.155 862.776 265.625C867.018 265.095 870.906 264.83 874.441 264.83C884.339 264.83 891.055 268.1 894.59 274.639C898.301 281.002 900.157 291.43 900.157 305.922V378.829H932.236V302.211C932.236 296.555 931.971 291.253 931.441 286.304C930.91 281.355 929.938 276.672 928.524 272.253C930.822 270.662 934.268 269.072 938.864 267.481C943.459 265.714 948.319 264.83 953.445 264.83C963.519 264.83 970.324 268.1 973.859 274.639C977.394 281.002 979.161 291.43 979.161 305.922V378.829H1011.24V300.885C1011.24 291.518 1010.44 282.946 1008.85 275.169C1007.44 267.216 1004.7 260.5 1000.64 255.021C996.747 249.365 991.268 245.035 984.198 242.03C977.305 238.849 968.468 237.258 957.687 237.258C953.445 237.258 949.203 237.7 944.961 238.584C940.896 239.467 937.008 240.616 933.296 242.03C929.585 243.267 926.227 244.681 923.222 246.272C920.217 247.863 917.743 249.365 915.799 250.779C911.734 246.714 906.608 243.444 900.422 240.97C894.413 238.495 886.636 237.258 877.092 237.258C865.958 237.258 855.353 238.053 845.279 239.644C835.381 241.235 827.339 242.914 821.153 244.681V349.675C816.438 336.698 811.831 324.337 807.333 312.592C799.794 292.344 792.362 273.173 785.039 255.079C777.93 236.985 770.822 219.752 763.713 203.381C756.605 187.011 749.281 170.855 741.742 154.915H703.292C695.753 170.855 688.429 187.011 681.321 203.381C674.213 219.752 666.997 236.985 659.673 255.079C654.541 268.142 649.297 281.766 643.94 295.952C635.933 295.786 630.226 293.403 626.818 288.803C623.284 284.031 621.516 276.077 621.516 264.943V208.473H670.827V181.697H621.516V139.809L589.437 145.111V184.949C578.109 180.483 566.119 178.25 553.467 178.25C542.862 178.25 533.318 180.106 524.835 183.818C516.351 187.529 509.105 192.655 503.095 199.194C499.79 202.9 496.911 207.002 494.458 211.502C491.948 205.545 488.704 200.382 484.726 196.013C474.121 184.171 459.275 178.25 440.187 178.25C432.057 178.25 424.103 179.841 416.326 183.023C408.55 186.027 401.657 190.622 395.648 196.808C390.749 201.707 386.614 207.662 383.242 214.675C381.405 207.597 378.385 201.553 374.184 196.543C369.765 190.888 363.756 186.557 356.156 183.553C348.556 180.371 339.1 178.781 327.789 178.781C315.77 178.781 304.812 179.576 294.915 181.167C285.017 182.757 276.975 184.436 270.789 186.204V211.246C268.219 206.383 265.157 202.012 261.602 198.134C255.769 191.771 248.699 186.911 240.392 183.553C232.262 180.018 223.337 178.25 213.616 178.25C203.895 178.25 194.97 180.018 186.84 183.553C178.709 186.911 171.64 191.771 165.63 198.134C159.798 204.497 155.203 212.185 151.845 221.199C148.663 230.036 147.072 239.934 147.072 250.892C147.072 261.85 148.663 271.836 151.845 280.849C152.793 283.396 153.841 285.837 154.987 288.172C152.467 289.147 149.652 290.152 146.542 291.189C139.119 293.487 129.487 294.635 117.645 294.635C107.747 294.635 99.2637 293.045 92.194 289.863C85.1243 286.505 79.2918 281.91 74.6965 276.077C70.1012 270.068 66.6547 262.998 64.357 254.868C62.2361 246.738 61.1757 237.813 61.1757 228.092C61.1757 217.134 62.5896 207.501 65.4175 199.194C68.2454 190.888 72.1337 183.995 77.0825 178.516C82.208 173.037 88.2173 168.971 95.1102 166.32C102.003 163.492 109.426 162.079 117.38 162.079C126.57 162.079 135.054 163.316 142.831 165.79C150.784 168.088 156.882 170.562 161.124 173.213L170.933 145.907C169.696 145.2 167.575 144.051 164.57 142.46C161.565 140.869 157.765 139.367 153.17 137.953C148.575 136.539 143.184 135.302 136.998 134.242C130.812 133.004 123.919 132.386 116.319 132.386C103.771 132.386 92.0172 134.507 81.0592 138.749C70.1012 142.99 60.5571 149.265 52.4269 157.572C44.2968 165.702 37.8457 175.688 33.0736 187.529C28.4783 199.371 26.1807 212.98 26.1807 228.357C26.1807 243.734 28.2132 257.343 32.2783 269.184C36.3434 281.026 42.1759 291.101 49.7758 299.407ZM238.272 218.283C244.281 226.236 247.285 237.106 247.285 250.892C247.285 264.854 244.281 275.901 238.272 284.031C232.439 292.161 224.221 296.226 213.616 296.226C203.011 296.226 194.705 292.161 188.695 284.031C182.863 275.901 179.947 264.854 179.947 250.892C179.947 237.106 182.863 226.236 188.695 218.283C194.705 210.152 203.011 206.087 213.616 206.087C224.221 206.087 232.439 210.152 238.272 218.283ZM466.963 224.91C468.2 228.799 468.819 232.952 468.819 237.371H409.168C409.699 233.306 410.671 229.329 412.085 225.441C413.499 221.552 415.443 218.106 417.917 215.101C420.568 212.097 423.75 209.711 427.461 207.943C431.173 205.999 435.503 205.027 440.452 205.027C445.224 205.027 449.289 205.911 452.647 207.678C456.182 209.269 459.098 211.566 461.396 214.571C463.87 217.399 465.726 220.845 466.963 224.91ZM704.585 239.893C711.047 223.522 716.755 209.628 721.71 198.212C726.448 209.197 732.049 222.983 738.511 239.569C744.973 256.156 751.651 274.034 758.544 293.205H684.875C691.768 274.034 698.338 256.263 704.585 239.893ZM1095.34 354.703C1090.22 355.764 1082.71 356.294 1072.81 356.294C1064.68 356.294 1058.23 354.88 1053.45 352.052C1048.68 349.048 1046.3 343.745 1046.3 336.145C1046.3 332.257 1047.18 329.076 1048.95 326.601C1050.72 323.95 1053.01 321.918 1055.84 320.504C1058.85 319.09 1062.12 318.118 1065.65 317.587C1069.36 317.057 1072.98 316.792 1076.52 316.792C1080.58 316.792 1084.3 317.057 1087.65 317.587C1091.01 318.118 1093.58 318.648 1095.34 319.178V354.703ZM1096.93 240.704C1089.69 238.053 1080.76 236.728 1070.16 236.728C1061.32 236.728 1053.01 237.435 1045.24 238.849C1037.46 240.263 1031.54 241.677 1027.47 243.091L1031.45 269.072C1035.34 267.658 1040.38 266.421 1046.56 265.36C1052.75 264.3 1059.55 263.769 1066.98 263.769C1072.45 263.769 1076.96 264.476 1080.5 265.89C1084.21 267.304 1087.12 269.337 1089.25 271.988C1091.54 274.462 1093.13 277.379 1094.02 280.737C1094.9 284.095 1095.34 287.63 1095.34 291.341V296.643C1090.92 295.583 1086.77 294.876 1082.88 294.523C1078.99 293.992 1075.28 293.727 1071.75 293.727C1064.15 293.727 1056.81 294.523 1049.74 296.113C1042.85 297.527 1036.75 300.002 1031.45 303.536C1026.15 306.895 1021.91 311.313 1018.73 316.792C1015.72 322.271 1014.22 328.987 1014.22 336.941C1014.22 345.248 1015.54 352.229 1018.19 357.885C1021.02 363.54 1024.82 368.136 1029.59 371.671C1034.54 375.205 1040.46 377.768 1047.36 379.359C1054.25 380.95 1061.85 381.745 1070.16 381.745C1082.71 381.745 1093.93 380.95 1103.83 379.359C1113.9 377.945 1121.41 376.708 1126.36 375.647V291.606C1126.36 283.476 1125.39 276.053 1123.44 269.337C1121.68 262.444 1118.58 256.611 1114.17 251.839C1109.92 247.067 1104.18 243.356 1096.93 240.704ZM1222.11 278.351C1227.95 271.634 1232.63 266.421 1236.17 262.709V240.174H1130.92V266.951H1194.81C1190.04 272.607 1184.56 279.234 1178.37 286.834C1172.36 294.434 1166.26 302.476 1160.08 310.96C1153.89 319.267 1147.88 327.573 1142.05 335.88C1136.22 344.187 1131.36 351.875 1127.47 358.945V378.829H1237.76V352.052H1166.18C1171.48 343.922 1177.4 335.438 1183.94 326.601C1190.65 317.587 1197.28 309.015 1203.82 300.885C1210.36 292.578 1216.46 285.067 1222.11 278.351ZM1357 339.327C1360.19 330.313 1361.78 320.327 1361.78 309.369C1361.78 298.411 1360.1 288.513 1356.74 279.676C1353.56 270.662 1349.05 262.974 1343.22 256.611C1337.39 250.249 1330.32 245.388 1322.01 242.03C1313.88 238.495 1304.95 236.728 1295.23 236.728C1285.51 236.728 1276.59 238.495 1268.46 242.03C1260.33 245.388 1253.26 250.249 1247.25 256.611C1241.41 262.974 1236.82 270.662 1233.46 279.676C1230.28 288.513 1228.69 298.411 1228.69 309.369C1228.69 320.327 1230.28 330.313 1233.46 339.327C1236.82 348.341 1241.41 356.029 1247.25 362.392C1253.08 368.754 1260.06 373.703 1268.19 377.238C1276.32 380.773 1285.33 382.54 1295.23 382.54C1305.13 382.54 1314.14 380.773 1322.27 377.238C1330.58 373.703 1337.65 368.754 1343.48 362.392C1349.32 356.029 1353.82 348.341 1357 339.327ZM1319.89 276.76C1325.9 284.713 1328.9 295.583 1328.9 309.369C1328.9 323.332 1325.9 334.378 1319.89 342.508C1314.06 350.638 1305.84 354.703 1295.23 354.703C1284.63 354.703 1276.32 350.638 1270.31 342.508C1264.48 334.378 1261.56 323.332 1261.56 309.369C1261.56 295.583 1264.48 284.713 1270.31 276.76C1276.32 268.63 1284.63 264.565 1295.23 264.565C1305.84 264.565 1314.06 268.63 1319.89 276.76ZM1392.44 239.644C1382.54 241.235 1374.5 242.914 1368.31 244.681V378.829H1400.39V266.951C1402.51 266.597 1405.78 266.155 1410.2 265.625C1414.62 265.095 1418.86 264.83 1422.93 264.83C1428.41 264.83 1433 265.625 1436.71 267.216C1440.6 268.63 1443.6 271.016 1445.73 274.374C1448.02 277.555 1449.61 281.797 1450.5 287.099C1451.56 292.225 1452.09 298.499 1452.09 305.922V378.829H1484.17V300.885C1484.17 291.518 1483.2 282.946 1481.25 275.169C1479.48 267.216 1476.3 260.5 1471.71 255.021C1467.29 249.365 1461.28 245.035 1453.68 242.03C1446.08 238.849 1436.62 237.258 1425.31 237.258C1413.29 237.258 1402.34 238.053 1392.44 239.644ZM1568.2 354.703C1563.07 355.764 1555.56 356.294 1545.66 356.294C1537.53 356.294 1531.08 354.88 1526.31 352.052C1521.54 349.048 1519.15 343.745 1519.15 336.145C1519.15 332.257 1520.04 329.076 1521.8 326.601C1523.57 323.95 1525.87 321.918 1528.7 320.504C1531.7 319.09 1534.97 318.118 1538.51 317.587C1542.22 317.057 1545.84 316.792 1549.37 316.792C1553.44 316.792 1557.15 317.057 1560.51 317.587C1563.87 318.118 1566.43 318.648 1568.2 319.178V354.703ZM1569.79 240.704C1562.54 238.053 1553.62 236.728 1543.01 236.728C1534.18 236.728 1525.87 237.435 1518.09 238.849C1510.31 240.263 1504.39 241.677 1500.33 243.091L1504.31 269.072C1508.19 267.658 1513.23 266.421 1519.42 265.36C1525.6 264.3 1532.41 263.769 1539.83 263.769C1545.31 263.769 1549.82 264.476 1553.35 265.89C1557.06 267.304 1559.98 269.337 1562.1 271.988C1564.4 274.462 1565.99 277.379 1566.87 280.737C1567.76 284.095 1568.2 287.63 1568.2 291.341V296.643C1563.78 295.583 1559.63 294.876 1555.74 294.523C1551.85 293.992 1548.14 293.727 1544.6 293.727C1537 293.727 1529.67 294.523 1522.6 296.113C1515.71 297.527 1509.61 300.002 1504.31 303.536C1499 306.895 1494.76 311.313 1491.58 316.792C1488.58 322.271 1487.07 328.987 1487.07 336.941C1487.07 345.248 1488.4 352.229 1491.05 357.885C1493.88 363.54 1497.68 368.136 1502.45 371.671C1507.4 375.205 1513.32 377.768 1520.21 379.359C1527.11 380.95 1534.71 381.745 1543.01 381.745C1555.56 381.745 1566.78 380.95 1576.68 379.359C1586.76 377.945 1594.27 376.708 1599.22 375.647V291.606C1599.22 283.476 1598.24 276.053 1596.3 269.337C1594.53 262.444 1591.44 256.611 1587.02 251.839C1582.78 247.067 1577.04 243.356 1569.79 240.704ZM1665.28 352.848C1661.39 354.792 1655.2 355.764 1646.72 355.764C1638.24 355.764 1630.64 354.88 1623.92 353.113C1617.38 351.345 1611.72 349.489 1606.95 347.545L1601.38 374.322C1604.39 375.559 1609.6 377.15 1617.03 379.094C1624.45 381.215 1634.26 382.275 1646.45 382.275C1664.66 382.275 1678.62 378.917 1688.34 372.201C1698.24 365.308 1703.19 355.234 1703.19 341.978C1703.19 335.792 1702.39 330.49 1700.8 326.071C1699.21 321.653 1696.65 317.764 1693.11 314.406C1689.76 310.871 1685.43 307.778 1680.12 305.127C1674.82 302.299 1668.37 299.471 1660.77 296.643C1656.17 295.053 1652.29 293.55 1649.11 292.137C1645.92 290.546 1643.36 289.044 1641.42 287.63C1639.47 286.039 1638.06 284.36 1637.18 282.592C1636.47 280.825 1636.11 278.792 1636.11 276.495C1636.11 271.9 1638.15 268.541 1642.21 266.421C1646.28 264.123 1651.58 262.974 1658.12 262.974C1665.37 262.974 1671.73 263.681 1677.21 265.095C1682.69 266.332 1687.19 267.746 1690.73 269.337L1696.56 243.356C1692.85 241.942 1687.28 240.528 1679.86 239.114C1672.44 237.523 1664.66 236.728 1656.53 236.728C1640.44 236.728 1627.72 240.439 1618.35 247.863C1608.98 255.109 1604.3 265.095 1604.3 277.82C1604.3 284.36 1605.27 289.927 1607.22 294.523C1609.34 298.941 1612.17 302.741 1615.7 305.922C1619.24 309.104 1623.39 311.932 1628.16 314.406C1633.11 316.704 1638.5 318.913 1644.33 321.034C1653.88 324.569 1660.68 327.839 1664.75 330.843C1668.99 333.848 1671.11 337.648 1671.11 342.243C1671.11 347.192 1669.17 350.727 1665.28 352.848Z" fill="white"/>
</g>
<g filter="url(#filter1_d_20_127)">
<path d="M715.232 92.0076C715.232 92.0076 746.01 93.5248 762.581 101.252C779.152 108.979 800.098 131.581 800.098 131.581" stroke="white" stroke-width="6.59012" stroke-linecap="round" stroke-linejoin="round"/>
<path d="M719.319 114.019C719.319 114.019 743.092 112.27 755.175 117.904C767.259 123.539 781.2 142.874 781.2 142.874" stroke="white" stroke-width="6.59012" stroke-linecap="round" stroke-linejoin="round"/>
<path d="M718.984 133.969C718.984 133.969 738.268 130.126 747.474 134.419C756.68 138.712 766.132 155.954 766.132 155.954" stroke="white" stroke-width="6.59012" stroke-linecap="round" stroke-linejoin="round"/>
</g>
<defs>
<filter id="filter0_d_20_127" x="0.222332" y="106.427" width="1728.92" height="302.071" filterUnits="userSpaceOnUse" color-interpolation-filters="sRGB">
<feFlood flood-opacity="0" result="BackgroundImageFix"/>
<feColorMatrix in="SourceAlpha" type="matrix" values="0 0 0 0 0 0 0 0 0 0 0 0 0 0 0 0 0 0 127 0" result="hardAlpha"/>
<feOffset/>
<feGaussianBlur stdDeviation="12.9792"/>
<feComposite in2="hardAlpha" operator="out"/>
<feColorMatrix type="matrix" values="0 0 0 0 0 0 0 0 0 0 0 0 0 0 0 0 0 0 0.15 0"/>
<feBlend mode="normal" in2="BackgroundImageFix" result="effect1_dropShadow_20_127"/>
<feBlend mode="normal" in="SourceGraphic" in2="effect1_dropShadow_20_127" result="shape"/>
</filter>
<filter id="filter1_d_20_127" x="687.552" y="64.3273" width="140.226" height="119.308" filterUnits="userSpaceOnUse" color-interpolation-filters="sRGB">
<feFlood flood-opacity="0" result="BackgroundImageFix"/>
<feColorMatrix in="SourceAlpha" type="matrix" values="0 0 0 0 0 0 0 0 0 0 0 0 0 0 0 0 0 0 127 0" result="hardAlpha"/>
<feOffset/>
<feGaussianBlur stdDeviation="12.1926"/>
<feComposite in2="hardAlpha" operator="out"/>
<feColorMatrix type="matrix" values="0 0 0 0 0 0 0 0 0 0 0 0 0 0 0 0 0 0 0.15 0"/>
<feBlend mode="normal" in2="BackgroundImageFix" result="effect1_dropShadow_20_127"/>
<feBlend mode="normal" in="SourceGraphic" in2="effect1_dropShadow_20_127" result="shape"/>
</filter>
</defs>
</svg>
